<?xml version="1.0" standalone="no"?><!DOCTYPE svg PUBLIC "-//W3C//DTD SVG 1.1//EN" "http://www.w3.org/Graphics/SVG/1.1/DTD/svg11.dtd"><svg t="1655888003718" class="icon" viewBox="0 0 1024 1024" version="1.1" xmlns="http://www.w3.org/2000/svg" p-id="713" width="350" height="350" xmlns:xlink="http://www.w3.org/1999/xlink"><defs><style type="text/css">@font-face { font-family: feedback-iconfont; src: url("//at.alicdn.com/t/font_1031158_u69w8yhxdu.woff2?t=1630033759944") format("woff2"), url("//at.alicdn.com/t/font_1031158_u69w8yhxdu.woff?t=1630033759944") format("woff"), url("//at.alicdn.com/t/font_1031158_u69w8yhxdu.ttf?t=1630033759944") format("truetype"); }
</style></defs><path d="M87 160h850c13.255 0 24 10.745 24 24v656c0 13.255-10.745 24-24 24H87c-13.255 0-24-10.745-24-24V184c0-13.255 10.745-24 24-24z" fill="#13227a" fill-opacity=".45" p-id="714"></path><path d="M111 864l128.17-128.361c22.092-22.125 57.936-22.151 80.06-0.06 22.124 22.091 57.968 22.065 80.06-0.06l120.576-120.756c39.023-39.081 102.34-39.128 141.42-0.105L911 864H111z" fill="#13227a" fill-opacity=".574" p-id="715"></path><path d="M321 487m-48 0a48 48 0 1 0 96 0 48 48 0 1 0-96 0Z" fill="#13227a" fill-opacity=".574" p-id="716"></path><path d="M71 160h882a8 8 0 0 1 8 8v104H63V168a8 8 0 0 1 8-8z" fill="#13227a" fill-opacity=".5" p-id="717"></path><path d="M287 216m-16 0a16 16 0 1 0 32 0 16 16 0 1 0-32 0Z" fill="#13227a" fill-opacity=".302" p-id="718"></path><path d="M207 216m-16 0a16 16 0 1 0 32 0 16 16 0 1 0-32 0Z" fill="#13227a" fill-opacity=".302" p-id="719"></path><path d="M127 216m-16 0a16 16 0 1 0 32 0 16 16 0 1 0-32 0Z" fill="#13227a" fill-opacity=".302" p-id="720"></path></svg>