<?xml version="1.0" standalone="no"?><!DOCTYPE svg PUBLIC "-//W3C//DTD SVG 1.1//EN" "http://www.w3.org/Graphics/SVG/1.1/DTD/svg11.dtd"><svg t="1655962959535" class="icon" viewBox="0 0 1024 1024" version="1.1" xmlns="http://www.w3.org/2000/svg" p-id="3694" xmlns:xlink="http://www.w3.org/1999/xlink" width="50" height="50"><defs><style type="text/css">@font-face { font-family: feedback-iconfont; src: url("//at.alicdn.com/t/font_1031158_u69w8yhxdu.woff2?t=1630033759944") format("woff2"), url("//at.alicdn.com/t/font_1031158_u69w8yhxdu.woff?t=1630033759944") format("woff"), url("//at.alicdn.com/t/font_1031158_u69w8yhxdu.ttf?t=1630033759944") format("truetype"); }
</style></defs><path d="M512 188.2c-266.7 0-482.9 145-482.9 323.8S245.3 835.8 512 835.8s482.9-145 482.9-323.8S778.7 188.2 512 188.2z m0 545.4c-122.4 0-221.6-99.2-221.6-221.6 0-122.4 99.2-221.6 221.6-221.6S733.6 389.6 733.6 512c0 122.4-99.2 221.6-221.6 221.6z" p-id="3695" fill="#ffffff"></path><path d="M512 512m-136.3 0a136.3 136.3 0 1 0 272.6 0 136.3 136.3 0 1 0-272.6 0Z" p-id="3696" fill="#ffffff"></path></svg>