<?xml version="1.0" standalone="no"?><!DOCTYPE svg PUBLIC "-//W3C//DTD SVG 1.1//EN" "http://www.w3.org/Graphics/SVG/1.1/DTD/svg11.dtd"><svg t="1655962839828" class="icon" viewBox="0 0 1024 1024" version="1.1" xmlns="http://www.w3.org/2000/svg" p-id="3012" xmlns:xlink="http://www.w3.org/1999/xlink" width="50" height="50"><defs><style type="text/css">@font-face { font-family: feedback-iconfont; src: url("//at.alicdn.com/t/font_1031158_u69w8yhxdu.woff2?t=1630033759944") format("woff2"), url("//at.alicdn.com/t/font_1031158_u69w8yhxdu.woff?t=1630033759944") format("woff"), url("//at.alicdn.com/t/font_1031158_u69w8yhxdu.ttf?t=1630033759944") format("truetype"); }
</style></defs><path d="M610.839099 474.569506 412.573523 474.569506c-6.843872 0-12.391215 5.547343-12.391215 12.391215 0 6.844895 5.547343 12.391215 12.391215 12.391215l198.266599 0c6.840802 0 12.391215-5.54632 12.391215-12.391215C623.230314 480.116849 617.679901 474.569506 610.839099 474.569506z" p-id="3013" fill="#ffffff"></path><path d="M610.839099 536.52865 412.573523 536.52865c-6.843872 0-12.391215 5.547343-12.391215 12.390191 0 6.843872 5.547343 12.392238 12.391215 12.392238l198.266599 0c6.840802 0 12.391215-5.548366 12.391215-12.392238C623.230314 542.075992 617.679901 536.52865 610.839099 536.52865z" p-id="3014" fill="#ffffff"></path><path d="M610.839099 598.484723 412.573523 598.484723c-6.843872 0-12.391215 5.548366-12.391215 12.392238 0 6.843872 5.547343 12.392238 12.391215 12.392238l198.266599 0c6.840802 0 12.391215-5.548366 12.391215-12.392238C623.230314 604.03309 617.679901 598.484723 610.839099 598.484723z" p-id="3015" fill="#ffffff"></path><path d="M511.706311 64.020082c-247.272733 0-447.725114 200.453405-447.725114 447.725114s200.452381 447.725114 447.725114 447.725114 447.725114-200.453405 447.725114-447.725114S758.979044 64.020082 511.706311 64.020082zM623.230314 344.458169c0-10.265808 8.319479-18.587334 18.585287-18.587334 10.265808 0 18.588357 8.321526 18.588357 18.587334l0 24.783453c0 10.265808-8.322549 18.587334-18.588357 18.587334-10.265808 0-18.585287-8.321526-18.585287-18.587334L623.230314 344.458169zM536.488741 344.458169c0-10.265808 8.322549-18.587334 18.588357-18.587334 10.262738 0 18.585287 8.321526 18.585287 18.587334l0 24.783453c0 10.265808-8.322549 18.587334-18.585287 18.587334-10.265808 0-18.588357-8.321526-18.588357-18.587334L536.488741 344.458169zM449.747167 344.458169c0-10.265808 8.322549-18.587334 18.588357-18.587334s18.588357 8.321526 18.588357 18.587334l0 24.783453c0 10.265808-8.322549 18.587334-18.588357 18.587334s-18.588357-8.321526-18.588357-18.587334L449.747167 344.458169zM363.008664 344.458169c0-10.265808 8.322549-18.587334 18.585287-18.587334 10.265808 0 18.588357 8.321526 18.588357 18.587334l0 24.783453c0 10.265808-8.322549 18.587334-18.588357 18.587334-10.262738 0-18.585287-8.321526-18.585287-18.587334L363.008664 344.458169zM709.968817 672.834059c0 13.68672-11.094686 24.784476-24.78243 24.784476L338.223165 697.618535c-13.684674 0-24.77936-11.096732-24.77936-24.784476L313.443805 387.829979c0-13.68672 11.094686-24.78243 24.77936-24.78243l12.394285 0 0 12.391215c0 13.68672 11.094686 24.781406 24.78243 24.781406l12.391215 0c13.687744 0 24.78243-11.095709 24.78243-24.781406l0-12.391215 24.78243 0 0 12.391215c0 13.68672 11.097756 24.781406 24.785499 24.781406l12.388145 0c13.687744 0 24.785499-11.095709 24.785499-24.781406l0-12.391215 24.78243 0 0 12.391215c0 13.68672 11.094686 24.781406 24.78243 24.781406l12.391215 0c13.687744 0 24.78243-11.095709 24.78243-24.781406l0-12.391215 24.785499 0 0 12.391215c0 13.68672 11.094686 24.781406 24.78243 24.781406L648.012743 400.220171c13.687744 0 24.78243-11.095709 24.78243-24.781406l0-12.391215 12.391215 0c13.687744 0 24.78243 11.096732 24.78243 24.78243L709.968817 672.834059z" p-id="3016" fill="#ffffff"></path></svg>